# xmcd CD database file
#
# Track frame offsets:
#	150
#	13940
#	36297
#	47485
#	67732
#	80862
#	96012
#	110125
#	123310
#	135775
#	152522
#	177552
#
# Disc length: 2558 seconds
#
# Revision: 2
# Processed by: cddbd v1.5.2PL0 Copyright (c) Steve Scherf et al.
# Submitted via: CDex 1.70beta2
#
DISCID=9809fc0c
DTITLE=Mina - ... del mio meglio n. 5
DYEAR=2001
DGENRE=Folk
TTITLE0=Ma che bontá
TTITLE1=Ancora dolcemente
TTITLE2=C´e´ un uomo in mezzo al mare
TTITLE3=Nuur
TTITLE4=Carlo detto il mandrillo
TTITLE5=L´abitudine (Daddy's dream)
TTITLE6=Una ragazza in due
TTITLE7=Pennsylvania 6-5000
TTITLE8=L´amore, forse... (Ao amigo Tom)
TTITLE9=That´s when your heartaches begin
TTITLE10=Triste
TTITLE11=La mia vecchiaia
EXTD=YEAR: 2001
EXTT0=
EXTT1=
EXTT2=
EXTT3=
EXTT4=
EXTT5=
EXTT6=
EXTT7=
EXTT8=
EXTT9=
EXTT10=
EXTT11=
PLAYORDER=
